<mxfile host="app.diagrams.net" agent="Mozilla/5.0 (Windows NT 10.0; Win64; x64) AppleWebKit/537.36 (KHTML, like Gecko) Chrome/135.0.0.0 Safari/537.36" version="26.2.9">
  <diagram name="페이지-1" id="e-5Nu9ljtNfqNeQGmsvv">
    <mxGraphModel dx="6665" dy="3995" grid="0" gridSize="10" guides="1" tooltips="1" connect="1" arrows="1" fold="1" page="0" pageScale="1" pageWidth="827" pageHeight="1169" math="0" shadow="0">
      <root>
        <mxCell id="0" />
        <mxCell id="1" parent="0" />
        <mxCell id="V9mbnsA_BjqGFGVXwpun-2" value="home 디렉토리 경로 가져오기" style="whiteSpace=wrap;strokeWidth=2;fontSize=35;fontStyle=0" vertex="1" parent="1">
          <mxGeometry x="789" y="110" width="300" height="107" as="geometry" />
        </mxCell>
        <mxCell id="V9mbnsA_BjqGFGVXwpun-3" value="log 디렉토리 생성" style="whiteSpace=wrap;strokeWidth=2;fontSize=35;fontStyle=0" vertex="1" parent="1">
          <mxGeometry x="827" y="247" width="223" height="78" as="geometry" />
        </mxCell>
        <mxCell id="V9mbnsA_BjqGFGVXwpun-4" value="서버 소켓 생성" style="whiteSpace=wrap;strokeWidth=2;fontSize=35;fontStyle=0" vertex="1" parent="1">
          <mxGeometry x="810" y="364" width="257" height="58" as="geometry" />
        </mxCell>
        <mxCell id="V9mbnsA_BjqGFGVXwpun-5" value="서버 소켓 주소 설정" style="whiteSpace=wrap;strokeWidth=2;fontSize=35;fontStyle=0" vertex="1" parent="1">
          <mxGeometry x="765" y="466" width="348" height="54" as="geometry" />
        </mxCell>
        <mxCell id="V9mbnsA_BjqGFGVXwpun-6" value="bind로 IP와 포트 할당" style="whiteSpace=wrap;strokeWidth=2;fontSize=35;fontStyle=0" vertex="1" parent="1">
          <mxGeometry x="831" y="554" width="215" height="80" as="geometry" />
        </mxCell>
        <mxCell id="V9mbnsA_BjqGFGVXwpun-7" value="listen으로 연결 대기" style="whiteSpace=wrap;strokeWidth=2;fontSize=35;fontStyle=0" vertex="1" parent="1">
          <mxGeometry x="820" y="662" width="238" height="92" as="geometry" />
        </mxCell>
        <mxCell id="V9mbnsA_BjqGFGVXwpun-9" value="accept로 클라이언트 연결 수락" style="whiteSpace=wrap;strokeWidth=2;fontSize=35;fontStyle=0" vertex="1" parent="1">
          <mxGeometry x="654" y="940" width="260" height="91" as="geometry" />
        </mxCell>
        <mxCell id="V9mbnsA_BjqGFGVXwpun-20" value="자식 종료 시간 저장" style="whiteSpace=wrap;strokeWidth=2;fontSize=35;fontStyle=0" vertex="1" parent="1">
          <mxGeometry x="25" y="2334" width="192" height="88" as="geometry" />
        </mxCell>
        <mxCell id="V9mbnsA_BjqGFGVXwpun-25" value="exit로 자식 종료" style="whiteSpace=wrap;strokeWidth=2;fontSize=35;fontStyle=0" vertex="1" parent="1">
          <mxGeometry x="36" y="2949" width="174" height="98" as="geometry" />
        </mxCell>
        <mxCell id="V9mbnsA_BjqGFGVXwpun-40" value="" style="curved=1;startArrow=none;endArrow=block;exitX=0.5;exitY=1;entryX=0.5;entryY=0;rounded=0;fontSize=35;startSize=8;endSize=8;fontStyle=0" edge="1" parent="1" target="V9mbnsA_BjqGFGVXwpun-2">
          <mxGeometry relative="1" as="geometry">
            <Array as="points" />
            <mxPoint x="938.5" y="74" as="sourcePoint" />
          </mxGeometry>
        </mxCell>
        <mxCell id="V9mbnsA_BjqGFGVXwpun-41" value="" style="curved=1;startArrow=none;endArrow=block;exitX=0.5;exitY=1;entryX=0.5;entryY=0;rounded=0;fontSize=35;startSize=8;endSize=8;fontStyle=0" edge="1" parent="1" source="V9mbnsA_BjqGFGVXwpun-2" target="V9mbnsA_BjqGFGVXwpun-3">
          <mxGeometry relative="1" as="geometry">
            <Array as="points" />
          </mxGeometry>
        </mxCell>
        <mxCell id="V9mbnsA_BjqGFGVXwpun-42" value="" style="curved=1;startArrow=none;endArrow=block;exitX=0.5;exitY=1;entryX=0.5;entryY=0;rounded=0;fontSize=35;startSize=8;endSize=8;fontStyle=0" edge="1" parent="1" source="V9mbnsA_BjqGFGVXwpun-3" target="V9mbnsA_BjqGFGVXwpun-4">
          <mxGeometry relative="1" as="geometry">
            <Array as="points" />
          </mxGeometry>
        </mxCell>
        <mxCell id="V9mbnsA_BjqGFGVXwpun-43" value="" style="curved=1;startArrow=none;endArrow=block;exitX=0.5;exitY=1;entryX=0.5;entryY=0;rounded=0;fontSize=35;startSize=8;endSize=8;fontStyle=0" edge="1" parent="1" source="V9mbnsA_BjqGFGVXwpun-4" target="V9mbnsA_BjqGFGVXwpun-5">
          <mxGeometry relative="1" as="geometry">
            <Array as="points" />
          </mxGeometry>
        </mxCell>
        <mxCell id="V9mbnsA_BjqGFGVXwpun-44" value="" style="curved=1;startArrow=none;endArrow=block;exitX=0.5;exitY=1;entryX=0.5;entryY=0;rounded=0;fontSize=35;startSize=8;endSize=8;fontStyle=0" edge="1" parent="1" source="V9mbnsA_BjqGFGVXwpun-5" target="V9mbnsA_BjqGFGVXwpun-6">
          <mxGeometry relative="1" as="geometry">
            <Array as="points" />
          </mxGeometry>
        </mxCell>
        <mxCell id="V9mbnsA_BjqGFGVXwpun-45" value="" style="curved=1;startArrow=none;endArrow=block;exitX=0.5;exitY=1;entryX=0.5;entryY=0;rounded=0;fontSize=35;startSize=8;endSize=8;fontStyle=0" edge="1" parent="1" source="V9mbnsA_BjqGFGVXwpun-6" target="V9mbnsA_BjqGFGVXwpun-7">
          <mxGeometry relative="1" as="geometry">
            <Array as="points" />
          </mxGeometry>
        </mxCell>
        <mxCell id="V9mbnsA_BjqGFGVXwpun-46" value="" style="curved=1;startArrow=none;endArrow=block;exitX=0.5;exitY=1;entryX=0.832;entryY=0.001;rounded=0;fontSize=35;startSize=8;endSize=8;fontStyle=0;entryDx=0;entryDy=0;entryPerimeter=0;" edge="1" parent="1" source="V9mbnsA_BjqGFGVXwpun-7" target="V9mbnsA_BjqGFGVXwpun-83">
          <mxGeometry relative="1" as="geometry">
            <Array as="points" />
            <mxPoint x="938.9999999999995" y="772" as="targetPoint" />
          </mxGeometry>
        </mxCell>
        <mxCell id="V9mbnsA_BjqGFGVXwpun-47" value="" style="curved=1;startArrow=none;endArrow=block;entryX=0.5;entryY=0;rounded=0;fontSize=35;startSize=8;endSize=8;fontStyle=0" edge="1" parent="1" target="V9mbnsA_BjqGFGVXwpun-9">
          <mxGeometry relative="1" as="geometry">
            <Array as="points">
              <mxPoint x="784" y="915" />
            </Array>
            <mxPoint x="784" y="819" as="sourcePoint" />
          </mxGeometry>
        </mxCell>
        <mxCell id="V9mbnsA_BjqGFGVXwpun-48" value="" style="curved=1;startArrow=none;endArrow=block;exitX=0.5;exitY=1;entryX=0.5;entryY=-0.01;rounded=0;fontSize=35;startSize=8;endSize=8;fontStyle=0" edge="1" parent="1" source="V9mbnsA_BjqGFGVXwpun-9" target="V9mbnsA_BjqGFGVXwpun-10">
          <mxGeometry relative="1" as="geometry">
            <Array as="points" />
          </mxGeometry>
        </mxCell>
        <mxCell id="V9mbnsA_BjqGFGVXwpun-54" value="" style="curved=1;startArrow=none;endArrow=block;entryX=0.5;entryY=-0.01;rounded=0;fontSize=35;startSize=8;endSize=8;fontStyle=0" edge="1" parent="1" target="V9mbnsA_BjqGFGVXwpun-16">
          <mxGeometry relative="1" as="geometry">
            <Array as="points" />
            <mxPoint x="554" y="1676" as="sourcePoint" />
          </mxGeometry>
        </mxCell>
        <mxCell id="V9mbnsA_BjqGFGVXwpun-58" value="yes" style="curved=1;startArrow=none;endArrow=block;exitX=0;exitY=0.85;entryX=0.5;entryY=0;rounded=0;fontSize=35;startSize=8;endSize=8;fontStyle=0" edge="1" parent="1" source="V9mbnsA_BjqGFGVXwpun-19" target="V9mbnsA_BjqGFGVXwpun-20">
          <mxGeometry relative="1" as="geometry">
            <Array as="points">
              <mxPoint x="121" y="2320" />
            </Array>
          </mxGeometry>
        </mxCell>
        <mxCell id="V9mbnsA_BjqGFGVXwpun-59" value="" style="curved=1;startArrow=none;endArrow=block;exitX=0.5;exitY=1;entryX=0.5;entryY=0;rounded=0;fontSize=35;startSize=8;endSize=8;fontStyle=0" edge="1" parent="1" source="V9mbnsA_BjqGFGVXwpun-20" target="V9mbnsA_BjqGFGVXwpun-21">
          <mxGeometry relative="1" as="geometry">
            <Array as="points" />
          </mxGeometry>
        </mxCell>
        <mxCell id="V9mbnsA_BjqGFGVXwpun-63" value="" style="curved=1;startArrow=none;endArrow=block;exitX=0.5;exitY=1;entryX=0.5;entryY=-0.01;rounded=0;fontSize=35;startSize=8;endSize=8;fontStyle=0" edge="1" parent="1" source="V9mbnsA_BjqGFGVXwpun-24" target="V9mbnsA_BjqGFGVXwpun-25">
          <mxGeometry relative="1" as="geometry">
            <Array as="points" />
          </mxGeometry>
        </mxCell>
        <mxCell id="V9mbnsA_BjqGFGVXwpun-80" value="" style="curved=1;startArrow=none;endArrow=block;exitX=0.5;exitY=-0.01;rounded=0;fontSize=35;startSize=8;endSize=8;fontStyle=0" edge="1" parent="1" source="V9mbnsA_BjqGFGVXwpun-39">
          <mxGeometry relative="1" as="geometry">
            <Array as="points">
              <mxPoint x="949" y="915" />
            </Array>
            <mxPoint x="945" y="821" as="targetPoint" />
          </mxGeometry>
        </mxCell>
        <mxCell id="V9mbnsA_BjqGFGVXwpun-82" value="&lt;span&gt;시작&lt;/span&gt;" style="ellipse;whiteSpace=wrap;html=1;aspect=fixed;fontSize=35;fontStyle=0" vertex="1" parent="1">
          <mxGeometry x="873" y="-57" width="131" height="131" as="geometry" />
        </mxCell>
        <mxCell id="V9mbnsA_BjqGFGVXwpun-83" value="&lt;font style=&quot;font-size: 35px;&quot;&gt;while(1)&lt;/font&gt;" style="swimlane;whiteSpace=wrap;html=1;startSize=23;fontStyle=0" vertex="1" parent="1">
          <mxGeometry x="-28" y="795" width="1164" height="2655" as="geometry" />
        </mxCell>
        <mxCell id="V9mbnsA_BjqGFGVXwpun-10" value="연결 성공 로그 작성" style="whiteSpace=wrap;strokeWidth=2;fontSize=35;fontStyle=0" vertex="1" parent="V9mbnsA_BjqGFGVXwpun-83">
          <mxGeometry x="659" y="268" width="306" height="77" as="geometry" />
        </mxCell>
        <mxCell id="V9mbnsA_BjqGFGVXwpun-39" value="waitpid로 자식 종료 처리" style="whiteSpace=wrap;strokeWidth=2;fontSize=35;fontStyle=0" vertex="1" parent="V9mbnsA_BjqGFGVXwpun-83">
          <mxGeometry x="874" y="676" width="249" height="111" as="geometry" />
        </mxCell>
        <mxCell id="V9mbnsA_BjqGFGVXwpun-38" value="클라이언트 소켓 닫기" style="whiteSpace=wrap;strokeWidth=2;fontSize=35;fontStyle=0" vertex="1" parent="V9mbnsA_BjqGFGVXwpun-83">
          <mxGeometry x="745" y="535" width="225" height="88" as="geometry" />
        </mxCell>
        <mxCell id="V9mbnsA_BjqGFGVXwpun-79" value="" style="curved=1;startArrow=none;endArrow=block;exitX=0.5;exitY=0.99;entryX=0.13;entryY=-0.01;rounded=0;fontSize=35;startSize=8;endSize=8;fontStyle=0" edge="1" parent="V9mbnsA_BjqGFGVXwpun-83" source="V9mbnsA_BjqGFGVXwpun-38" target="V9mbnsA_BjqGFGVXwpun-39">
          <mxGeometry relative="1" as="geometry">
            <Array as="points">
              <mxPoint x="812" y="583" />
            </Array>
          </mxGeometry>
        </mxCell>
        <mxCell id="V9mbnsA_BjqGFGVXwpun-11" value="fork로 자식 프로세스 생성" style="whiteSpace=wrap;strokeWidth=2;fontSize=35;fontStyle=0" vertex="1" parent="V9mbnsA_BjqGFGVXwpun-83">
          <mxGeometry x="685" y="374" width="254" height="75" as="geometry" />
        </mxCell>
        <mxCell id="V9mbnsA_BjqGFGVXwpun-49" value="" style="curved=1;startArrow=none;endArrow=block;exitX=0.5;exitY=0.99;entryX=0.5;entryY=-0.01;rounded=0;fontSize=35;startSize=8;endSize=8;fontStyle=0" edge="1" parent="V9mbnsA_BjqGFGVXwpun-83" source="V9mbnsA_BjqGFGVXwpun-10" target="V9mbnsA_BjqGFGVXwpun-11">
          <mxGeometry relative="1" as="geometry">
            <Array as="points" />
          </mxGeometry>
        </mxCell>
        <mxCell id="V9mbnsA_BjqGFGVXwpun-78" value="부모" style="curved=1;startArrow=none;endArrow=block;exitX=0.5;exitY=0.99;entryX=0.5;entryY=-0.01;rounded=0;fontSize=35;startSize=8;endSize=8;fontStyle=0" edge="1" parent="V9mbnsA_BjqGFGVXwpun-83" source="V9mbnsA_BjqGFGVXwpun-11" target="V9mbnsA_BjqGFGVXwpun-38">
          <mxGeometry relative="1" as="geometry">
            <Array as="points" />
          </mxGeometry>
        </mxCell>
        <mxCell id="V9mbnsA_BjqGFGVXwpun-12" value="서버 소켓 닫기" style="whiteSpace=wrap;strokeWidth=2;fontSize=35;fontStyle=0" vertex="1" parent="V9mbnsA_BjqGFGVXwpun-83">
          <mxGeometry x="445" y="509" width="233" height="67" as="geometry" />
        </mxCell>
        <mxCell id="V9mbnsA_BjqGFGVXwpun-50" value="자식" style="curved=1;startArrow=none;endArrow=block;exitX=0.08;exitY=0.99;entryX=0.5;entryY=-0.01;rounded=0;fontSize=35;startSize=8;endSize=8;fontStyle=0" edge="1" parent="V9mbnsA_BjqGFGVXwpun-83" source="V9mbnsA_BjqGFGVXwpun-11" target="V9mbnsA_BjqGFGVXwpun-12">
          <mxGeometry relative="1" as="geometry">
            <Array as="points">
              <mxPoint x="582" y="467" />
            </Array>
          </mxGeometry>
        </mxCell>
        <mxCell id="V9mbnsA_BjqGFGVXwpun-13" value="자식 시작 시간 저장" style="whiteSpace=wrap;strokeWidth=2;fontSize=35;fontStyle=0" vertex="1" parent="V9mbnsA_BjqGFGVXwpun-83">
          <mxGeometry x="391.5" y="617" width="340" height="54" as="geometry" />
        </mxCell>
        <mxCell id="V9mbnsA_BjqGFGVXwpun-51" value="" style="curved=1;startArrow=none;endArrow=block;exitX=0.5;exitY=0.99;entryX=0.5;entryY=-0.01;rounded=0;fontSize=35;startSize=8;endSize=8;fontStyle=0" edge="1" parent="V9mbnsA_BjqGFGVXwpun-83" source="V9mbnsA_BjqGFGVXwpun-12" target="V9mbnsA_BjqGFGVXwpun-13">
          <mxGeometry relative="1" as="geometry">
            <Array as="points" />
          </mxGeometry>
        </mxCell>
        <mxCell id="V9mbnsA_BjqGFGVXwpun-14" value="hit, miss 카운트 초기화" style="whiteSpace=wrap;strokeWidth=2;fontSize=35;fontStyle=0" vertex="1" parent="V9mbnsA_BjqGFGVXwpun-83">
          <mxGeometry x="466" y="704" width="219" height="83" as="geometry" />
        </mxCell>
        <mxCell id="V9mbnsA_BjqGFGVXwpun-52" value="" style="curved=1;startArrow=none;endArrow=block;exitX=0.5;exitY=0.99;entryX=0.5;entryY=-0.01;rounded=0;fontSize=35;startSize=8;endSize=8;fontStyle=0" edge="1" parent="V9mbnsA_BjqGFGVXwpun-83" source="V9mbnsA_BjqGFGVXwpun-13" target="V9mbnsA_BjqGFGVXwpun-14">
          <mxGeometry relative="1" as="geometry">
            <Array as="points" />
          </mxGeometry>
        </mxCell>
        <mxCell id="V9mbnsA_BjqGFGVXwpun-100" value="&lt;font style=&quot;font-size: 35px; font-weight: normal;&quot;&gt;while(1)&lt;/font&gt;" style="swimlane;whiteSpace=wrap;html=1;startSize=23;" vertex="1" parent="V9mbnsA_BjqGFGVXwpun-83">
          <mxGeometry x="40" y="853" width="966" height="1753" as="geometry" />
        </mxCell>
        <mxCell id="V9mbnsA_BjqGFGVXwpun-16" value="클라이언트로부터 URL 받기" style="whiteSpace=wrap;strokeWidth=2;fontSize=35;fontStyle=0" vertex="1" parent="V9mbnsA_BjqGFGVXwpun-100">
          <mxGeometry x="395.5" y="81" width="293" height="96" as="geometry" />
        </mxCell>
        <mxCell id="V9mbnsA_BjqGFGVXwpun-17" value="현재 시간 저장" style="whiteSpace=wrap;strokeWidth=2;fontSize=35;fontStyle=0" vertex="1" parent="V9mbnsA_BjqGFGVXwpun-100">
          <mxGeometry x="429" y="227" width="226" height="70" as="geometry" />
        </mxCell>
        <mxCell id="V9mbnsA_BjqGFGVXwpun-55" value="" style="curved=1;startArrow=none;endArrow=block;exitX=0.5;exitY=0.99;entryX=0.5;entryY=-0.01;rounded=0;fontSize=35;startSize=8;endSize=8;fontStyle=0" edge="1" parent="V9mbnsA_BjqGFGVXwpun-100" source="V9mbnsA_BjqGFGVXwpun-16" target="V9mbnsA_BjqGFGVXwpun-17">
          <mxGeometry relative="1" as="geometry">
            <Array as="points" />
          </mxGeometry>
        </mxCell>
        <mxCell id="V9mbnsA_BjqGFGVXwpun-104" value="" style="edgeStyle=none;curved=1;rounded=0;orthogonalLoop=1;jettySize=auto;html=1;fontSize=12;startSize=8;endSize=8;" edge="1" parent="V9mbnsA_BjqGFGVXwpun-100" source="V9mbnsA_BjqGFGVXwpun-16" target="V9mbnsA_BjqGFGVXwpun-17">
          <mxGeometry relative="1" as="geometry" />
        </mxCell>
        <mxCell id="V9mbnsA_BjqGFGVXwpun-18" value="로그 디렉토리 이동 후 로그 파일 열기" style="whiteSpace=wrap;strokeWidth=2;fontSize=35;fontStyle=0" vertex="1" parent="V9mbnsA_BjqGFGVXwpun-100">
          <mxGeometry x="401.5" y="331" width="281" height="133" as="geometry" />
        </mxCell>
        <mxCell id="V9mbnsA_BjqGFGVXwpun-56" value="" style="curved=1;startArrow=none;endArrow=block;exitX=0.5;exitY=0.99;entryX=0.5;entryY=-0.01;rounded=0;fontSize=35;startSize=8;endSize=8;fontStyle=0" edge="1" parent="V9mbnsA_BjqGFGVXwpun-100" source="V9mbnsA_BjqGFGVXwpun-17" target="V9mbnsA_BjqGFGVXwpun-18">
          <mxGeometry relative="1" as="geometry">
            <Array as="points" />
          </mxGeometry>
        </mxCell>
        <mxCell id="V9mbnsA_BjqGFGVXwpun-19" value="입력이 bye?" style="rhombus;strokeWidth=2;whiteSpace=wrap;fontSize=35;fontStyle=0" vertex="1" parent="V9mbnsA_BjqGFGVXwpun-100">
          <mxGeometry x="128" y="501" width="225" height="134" as="geometry" />
        </mxCell>
        <mxCell id="V9mbnsA_BjqGFGVXwpun-57" value="" style="curved=1;startArrow=none;endArrow=block;exitX=0;exitY=0.87;entryX=0.5;entryY=0;rounded=0;fontSize=35;startSize=8;endSize=8;fontStyle=0" edge="1" parent="V9mbnsA_BjqGFGVXwpun-100" source="V9mbnsA_BjqGFGVXwpun-18" target="V9mbnsA_BjqGFGVXwpun-19">
          <mxGeometry relative="1" as="geometry">
            <Array as="points">
              <mxPoint x="258" y="476" />
            </Array>
          </mxGeometry>
        </mxCell>
        <mxCell id="V9mbnsA_BjqGFGVXwpun-26" value="SHA1 해싱 → 디렉토리명과 파일명 추출" style="whiteSpace=wrap;strokeWidth=2;fontSize=35;fontStyle=0" vertex="1" parent="V9mbnsA_BjqGFGVXwpun-100">
          <mxGeometry x="286" y="672" width="371" height="114" as="geometry" />
        </mxCell>
        <mxCell id="V9mbnsA_BjqGFGVXwpun-64" value="no" style="curved=1;startArrow=none;endArrow=block;exitX=1.01;exitY=0.76;entryX=0.5;entryY=0;rounded=0;fontSize=35;startSize=8;endSize=8;fontStyle=0" edge="1" parent="V9mbnsA_BjqGFGVXwpun-100" source="V9mbnsA_BjqGFGVXwpun-19" target="V9mbnsA_BjqGFGVXwpun-26">
          <mxGeometry relative="1" as="geometry">
            <Array as="points">
              <mxPoint x="455" y="672" />
            </Array>
          </mxGeometry>
        </mxCell>
        <mxCell id="V9mbnsA_BjqGFGVXwpun-27" value="cache 디렉토리 생성" style="whiteSpace=wrap;strokeWidth=2;fontSize=35;fontStyle=0" vertex="1" parent="V9mbnsA_BjqGFGVXwpun-100">
          <mxGeometry x="346" y="820" width="259.5" height="83" as="geometry" />
        </mxCell>
        <mxCell id="V9mbnsA_BjqGFGVXwpun-65" value="" style="curved=1;startArrow=none;endArrow=block;exitX=0.5;exitY=1;entryX=0.5;entryY=0;rounded=0;fontSize=35;startSize=8;endSize=8;fontStyle=0" edge="1" parent="V9mbnsA_BjqGFGVXwpun-100" source="V9mbnsA_BjqGFGVXwpun-26" target="V9mbnsA_BjqGFGVXwpun-27">
          <mxGeometry relative="1" as="geometry">
            <Array as="points" />
          </mxGeometry>
        </mxCell>
        <mxCell id="V9mbnsA_BjqGFGVXwpun-28" value="xxx 서브디렉토리 생성" style="whiteSpace=wrap;strokeWidth=2;fontSize=35;fontStyle=0" vertex="1" parent="V9mbnsA_BjqGFGVXwpun-100">
          <mxGeometry x="333.5" y="935" width="276" height="77" as="geometry" />
        </mxCell>
        <mxCell id="V9mbnsA_BjqGFGVXwpun-66" value="" style="curved=1;startArrow=none;endArrow=block;exitX=0.5;exitY=1;entryX=0.5;entryY=0;rounded=0;fontSize=35;startSize=8;endSize=8;fontStyle=0" edge="1" parent="V9mbnsA_BjqGFGVXwpun-100" source="V9mbnsA_BjqGFGVXwpun-27" target="V9mbnsA_BjqGFGVXwpun-28">
          <mxGeometry relative="1" as="geometry">
            <Array as="points" />
          </mxGeometry>
        </mxCell>
        <mxCell id="V9mbnsA_BjqGFGVXwpun-29" value="파일 존재 여부 확인" style="whiteSpace=wrap;strokeWidth=2;fontSize=35;fontStyle=0" vertex="1" parent="V9mbnsA_BjqGFGVXwpun-100">
          <mxGeometry x="313" y="1044" width="317" height="85" as="geometry" />
        </mxCell>
        <mxCell id="V9mbnsA_BjqGFGVXwpun-67" value="" style="curved=1;startArrow=none;endArrow=block;exitX=0.5;exitY=1;entryX=0.5;entryY=0;rounded=0;fontSize=35;startSize=8;endSize=8;fontStyle=0" edge="1" parent="V9mbnsA_BjqGFGVXwpun-100" source="V9mbnsA_BjqGFGVXwpun-28" target="V9mbnsA_BjqGFGVXwpun-29">
          <mxGeometry relative="1" as="geometry">
            <Array as="points" />
          </mxGeometry>
        </mxCell>
        <mxCell id="V9mbnsA_BjqGFGVXwpun-30" value="파일 존재?" style="rhombus;strokeWidth=2;whiteSpace=wrap;fontSize=35;fontStyle=0" vertex="1" parent="V9mbnsA_BjqGFGVXwpun-100">
          <mxGeometry x="359" y="1161" width="220" height="124" as="geometry" />
        </mxCell>
        <mxCell id="V9mbnsA_BjqGFGVXwpun-68" value="" style="curved=1;startArrow=none;endArrow=block;exitX=0.5;exitY=1;entryX=0.5;entryY=0;rounded=0;fontSize=35;startSize=8;endSize=8;fontStyle=0" edge="1" parent="V9mbnsA_BjqGFGVXwpun-100" source="V9mbnsA_BjqGFGVXwpun-29" target="V9mbnsA_BjqGFGVXwpun-30">
          <mxGeometry relative="1" as="geometry">
            <Array as="points" />
          </mxGeometry>
        </mxCell>
        <mxCell id="V9mbnsA_BjqGFGVXwpun-31" value="파일 생성" style="whiteSpace=wrap;strokeWidth=2;fontSize=35;fontStyle=0" vertex="1" parent="V9mbnsA_BjqGFGVXwpun-100">
          <mxGeometry x="248.5" y="1353" width="194" height="54" as="geometry" />
        </mxCell>
        <mxCell id="V9mbnsA_BjqGFGVXwpun-69" value="no MISS" style="curved=1;startArrow=none;endArrow=block;exitX=0;exitY=0.95;entryX=0.5;entryY=-0.01;rounded=0;fontSize=35;startSize=8;endSize=8;fontStyle=0" edge="1" parent="V9mbnsA_BjqGFGVXwpun-100" source="V9mbnsA_BjqGFGVXwpun-30" target="V9mbnsA_BjqGFGVXwpun-31">
          <mxGeometry relative="1" as="geometry">
            <Array as="points">
              <mxPoint x="346" y="1308" />
            </Array>
          </mxGeometry>
        </mxCell>
        <mxCell id="V9mbnsA_BjqGFGVXwpun-32" value="miss 증가" style="whiteSpace=wrap;strokeWidth=2;fontSize=35;fontStyle=0" vertex="1" parent="V9mbnsA_BjqGFGVXwpun-100">
          <mxGeometry x="261" y="1453" width="169" height="54" as="geometry" />
        </mxCell>
        <mxCell id="V9mbnsA_BjqGFGVXwpun-70" value="" style="curved=1;startArrow=none;endArrow=block;exitX=0.5;exitY=0.99;entryX=0.5;entryY=-0.01;rounded=0;fontSize=35;startSize=8;endSize=8;fontStyle=0" edge="1" parent="V9mbnsA_BjqGFGVXwpun-100" source="V9mbnsA_BjqGFGVXwpun-31" target="V9mbnsA_BjqGFGVXwpun-32">
          <mxGeometry relative="1" as="geometry">
            <Array as="points" />
          </mxGeometry>
        </mxCell>
        <mxCell id="V9mbnsA_BjqGFGVXwpun-35" value="hit 증가" style="whiteSpace=wrap;strokeWidth=2;fontSize=35;fontStyle=0" vertex="1" parent="V9mbnsA_BjqGFGVXwpun-100">
          <mxGeometry x="497" y="1340" width="158" height="54" as="geometry" />
        </mxCell>
        <mxCell id="V9mbnsA_BjqGFGVXwpun-74" value="yes HIT" style="curved=1;startArrow=none;endArrow=block;exitX=1;exitY=0.9;entryX=0.5;entryY=-0.01;rounded=0;fontSize=35;startSize=8;endSize=8;fontStyle=0" edge="1" parent="V9mbnsA_BjqGFGVXwpun-100" source="V9mbnsA_BjqGFGVXwpun-30" target="V9mbnsA_BjqGFGVXwpun-35">
          <mxGeometry relative="1" as="geometry">
            <Array as="points">
              <mxPoint x="576" y="1308" />
            </Array>
          </mxGeometry>
        </mxCell>
        <mxCell id="V9mbnsA_BjqGFGVXwpun-36" value="클라이언트에 HIT 전송" style="whiteSpace=wrap;strokeWidth=2;fontSize=35;fontStyle=0" vertex="1" parent="V9mbnsA_BjqGFGVXwpun-100">
          <mxGeometry x="474" y="1429" width="211" height="90" as="geometry" />
        </mxCell>
        <mxCell id="V9mbnsA_BjqGFGVXwpun-75" value="" style="curved=1;startArrow=none;endArrow=block;exitX=0.5;exitY=0.99;entryX=0.5;entryY=-0.01;rounded=0;fontSize=35;startSize=8;endSize=8;fontStyle=0" edge="1" parent="V9mbnsA_BjqGFGVXwpun-100" source="V9mbnsA_BjqGFGVXwpun-35" target="V9mbnsA_BjqGFGVXwpun-36">
          <mxGeometry relative="1" as="geometry">
            <Array as="points" />
          </mxGeometry>
        </mxCell>
        <mxCell id="V9mbnsA_BjqGFGVXwpun-33" value="클라이언트에 MISS 전송" style="whiteSpace=wrap;strokeWidth=2;fontSize=35;fontStyle=0" vertex="1" parent="V9mbnsA_BjqGFGVXwpun-100">
          <mxGeometry x="236" y="1543" width="219" height="96" as="geometry" />
        </mxCell>
        <mxCell id="V9mbnsA_BjqGFGVXwpun-71" value="" style="curved=1;startArrow=none;endArrow=block;exitX=0.5;exitY=0.99;entryX=0.5;entryY=-0.01;rounded=0;fontSize=35;startSize=8;endSize=8;fontStyle=0" edge="1" parent="V9mbnsA_BjqGFGVXwpun-100" source="V9mbnsA_BjqGFGVXwpun-32" target="V9mbnsA_BjqGFGVXwpun-33">
          <mxGeometry relative="1" as="geometry">
            <Array as="points" />
          </mxGeometry>
        </mxCell>
        <mxCell id="V9mbnsA_BjqGFGVXwpun-34" value="로그에 MISS 작성" style="whiteSpace=wrap;strokeWidth=2;fontSize=35;fontStyle=0" vertex="1" parent="V9mbnsA_BjqGFGVXwpun-100">
          <mxGeometry x="424" y="1665" width="174" height="72" as="geometry" />
        </mxCell>
        <mxCell id="V9mbnsA_BjqGFGVXwpun-72" value="" style="curved=1;startArrow=none;endArrow=block;exitX=0.5;exitY=0.99;entryX=0;entryY=0.06;rounded=0;fontSize=35;startSize=8;endSize=8;fontStyle=0" edge="1" parent="V9mbnsA_BjqGFGVXwpun-100" source="V9mbnsA_BjqGFGVXwpun-33" target="V9mbnsA_BjqGFGVXwpun-34">
          <mxGeometry relative="1" as="geometry">
            <Array as="points">
              <mxPoint x="346" y="1632" />
            </Array>
          </mxGeometry>
        </mxCell>
        <mxCell id="V9mbnsA_BjqGFGVXwpun-73" value="" style="curved=1;startArrow=none;endArrow=block;exitX=1;exitY=0.17;entryX=1;entryY=0.91;rounded=0;fontSize=35;startSize=8;endSize=8;fontStyle=0" edge="1" parent="V9mbnsA_BjqGFGVXwpun-100" source="V9mbnsA_BjqGFGVXwpun-34" target="V9mbnsA_BjqGFGVXwpun-18">
          <mxGeometry relative="1" as="geometry">
            <Array as="points">
              <mxPoint x="798" y="1632" />
              <mxPoint x="798" y="476" />
            </Array>
          </mxGeometry>
        </mxCell>
        <mxCell id="V9mbnsA_BjqGFGVXwpun-37" value="로그에 HIT 작성" style="whiteSpace=wrap;strokeWidth=2;fontSize=35;fontStyle=0" vertex="1" parent="V9mbnsA_BjqGFGVXwpun-100">
          <mxGeometry x="554" y="1558" width="167" height="93" as="geometry" />
        </mxCell>
        <mxCell id="V9mbnsA_BjqGFGVXwpun-76" value="" style="curved=1;startArrow=none;endArrow=block;exitX=0.5;exitY=0.99;entryX=0.25;entryY=-0.01;rounded=0;fontSize=35;startSize=8;endSize=8;fontStyle=0" edge="1" parent="V9mbnsA_BjqGFGVXwpun-100" source="V9mbnsA_BjqGFGVXwpun-36" target="V9mbnsA_BjqGFGVXwpun-37">
          <mxGeometry relative="1" as="geometry">
            <Array as="points">
              <mxPoint x="576" y="1528" />
            </Array>
          </mxGeometry>
        </mxCell>
        <mxCell id="V9mbnsA_BjqGFGVXwpun-77" value="" style="curved=1;startArrow=none;endArrow=block;exitX=0.72;exitY=-0.01;entryX=0.94;entryY=0.99;rounded=0;fontSize=35;startSize=8;endSize=8;fontStyle=0" edge="1" parent="V9mbnsA_BjqGFGVXwpun-100" source="V9mbnsA_BjqGFGVXwpun-37" target="V9mbnsA_BjqGFGVXwpun-18">
          <mxGeometry relative="1" as="geometry">
            <Array as="points">
              <mxPoint x="729" y="1528" />
              <mxPoint x="729" y="476" />
            </Array>
          </mxGeometry>
        </mxCell>
        <mxCell id="V9mbnsA_BjqGFGVXwpun-24" value="클라이언트 소켓 닫기" style="whiteSpace=wrap;strokeWidth=2;fontSize=35;fontStyle=0" vertex="1" parent="V9mbnsA_BjqGFGVXwpun-100">
          <mxGeometry x="8" y="1157" width="202" height="98" as="geometry" />
        </mxCell>
        <mxCell id="V9mbnsA_BjqGFGVXwpun-23" value="로그 파일 닫기" style="whiteSpace=wrap;strokeWidth=2;fontSize=35;fontStyle=0" vertex="1" parent="V9mbnsA_BjqGFGVXwpun-100">
          <mxGeometry x="-12" y="1029" width="257" height="88" as="geometry" />
        </mxCell>
        <mxCell id="V9mbnsA_BjqGFGVXwpun-62" value="" style="curved=1;startArrow=none;endArrow=block;exitX=0.5;exitY=1;entryX=0.5;entryY=0;rounded=0;fontSize=35;startSize=8;endSize=8;fontStyle=0" edge="1" parent="V9mbnsA_BjqGFGVXwpun-100" source="V9mbnsA_BjqGFGVXwpun-23" target="V9mbnsA_BjqGFGVXwpun-24">
          <mxGeometry relative="1" as="geometry">
            <Array as="points" />
          </mxGeometry>
        </mxCell>
        <mxCell id="V9mbnsA_BjqGFGVXwpun-21" value="실행 시간 계산" style="whiteSpace=wrap;strokeWidth=2;fontSize=35;fontStyle=0" vertex="1" parent="V9mbnsA_BjqGFGVXwpun-100">
          <mxGeometry x="27" y="813.5" width="158" height="96" as="geometry" />
        </mxCell>
        <mxCell id="V9mbnsA_BjqGFGVXwpun-22" value="종료 로그 작성" style="whiteSpace=wrap;strokeWidth=2;fontSize=35;fontStyle=0" vertex="1" parent="V9mbnsA_BjqGFGVXwpun-100">
          <mxGeometry x="12" y="935" width="233" height="72" as="geometry" />
        </mxCell>
        <mxCell id="V9mbnsA_BjqGFGVXwpun-60" value="" style="curved=1;startArrow=none;endArrow=block;exitX=0.5;exitY=1;entryX=0.5;entryY=0;rounded=0;fontSize=35;startSize=8;endSize=8;fontStyle=0" edge="1" parent="V9mbnsA_BjqGFGVXwpun-100" source="V9mbnsA_BjqGFGVXwpun-21" target="V9mbnsA_BjqGFGVXwpun-22">
          <mxGeometry relative="1" as="geometry">
            <Array as="points" />
          </mxGeometry>
        </mxCell>
        <mxCell id="V9mbnsA_BjqGFGVXwpun-61" value="" style="curved=1;startArrow=none;endArrow=block;exitX=0.5;exitY=1;entryX=0.5;entryY=0;rounded=0;fontSize=35;startSize=8;endSize=8;fontStyle=0" edge="1" parent="V9mbnsA_BjqGFGVXwpun-100" source="V9mbnsA_BjqGFGVXwpun-22" target="V9mbnsA_BjqGFGVXwpun-23">
          <mxGeometry relative="1" as="geometry">
            <Array as="points" />
          </mxGeometry>
        </mxCell>
        <mxCell id="V9mbnsA_BjqGFGVXwpun-53" value="" style="curved=1;startArrow=none;endArrow=block;exitX=0.5;exitY=0.99;entryX=0.56;entryY=-0.003;rounded=0;fontSize=35;startSize=8;endSize=8;fontStyle=0;entryDx=0;entryDy=0;entryPerimeter=0;" edge="1" parent="V9mbnsA_BjqGFGVXwpun-83" source="V9mbnsA_BjqGFGVXwpun-14" target="V9mbnsA_BjqGFGVXwpun-100">
          <mxGeometry relative="1" as="geometry">
            <Array as="points" />
            <mxPoint x="582" y="816.0000000000005" as="targetPoint" />
          </mxGeometry>
        </mxCell>
      </root>
    </mxGraphModel>
  </diagram>
</mxfile>
